# AST/ASF file generated using VICON BodyLanguage
# -----------------------------------------------
:version 1.10
:name VICON
:units
  mass 1.0
  length 0.45
  angle deg
:documentation
   .ast/.asf automatically generated from VICON data using
   VICON BodyBuilder and BodyLanguage model FoxedUp or BRILLIANT.MOD
:root
   order TX TY TZ RX RY RZ
   axis XYZ
   position 0 0 0  
   orientation 0 0 0 
:bonedata
  begin
     id 1 
     name lhipjoint
     direction 0.625129 -0.738222 0.253461 
     length 2.5165 
     axis 0 0 0  XYZ
  end
  begin
     id 2 
     name lfemur
     direction 0.34202 -0.939693 0  
     length 7.54288  
     axis 0 0 20  XYZ
    dof rx ry rz
    limits (-160.0 20.0)
           (-70.0 70.0)
           (-60.0 70.0)
  end
  begin
     id 3 
     name ltibia
     direction 0.34202 -0.939693 0   
     length 7.71864   
     axis 0 0 20   XYZ
    dof rx
    limits (-10.0 170.0)
  end
  begin
     id 4 
     name lfoot
     direction 0.0772037 -0.212115 0.97419   
     length 2.18429   
     axis -90 7.62852e-016 20   XYZ
    dof rx rz
    limits (-45.0 90.0)
           (-70.0 20.0)
  end
  begin
     id 5 
     name ltoes
     direction 1.53513e-011 -4.21834e-011 1   
     length 1.09718   
     axis -90 7.62852e-016 20   XYZ
    dof rx
    limits (-90.0 20.0)
  end
  begin
     id 6 
     name rhipjoint
     direction -0.621946 -0.740623 0.254285   
     length 2.50835  
     axis 0 0 0  XYZ 
  end
  begin
     id 7 
     name rfemur
     direction -0.34202 -0.939693 0   
     length 7.43366   
     axis 0 0 -20   XYZ
    dof rx ry rz
    limits (-160.0 20.0)
           (-70.0 70.0)
           (-70.0 60.0)
  end
  begin
     id 8 
     name rtibia
     direction -0.34202 -0.939693 0   
     length 7.77122   
     axis 0 0 -20   XYZ
    dof rx
    limits (-10.0 170.0)
 end
 begin
     id 9 
     name rfoot
     direction -0.082694 -0.2272 0.970331   
     length 2.2293  
     axis -90 -7.62852e-016 -20   XYZ
    dof rx rz
    limits (-45.0 90.0)
           (-20.0 70.0)
  end
  begin
     id 10 
     name rtoes
     direction -1.53565e-011 -4.21695e-011 1   
     length 1.1178   
     axis -90 -7.62852e-016 -20   XYZ
    dof rx
    limits (-90.0 20.0)
  end
  begin
     id 11 
     name lowerback
     direction -0.000695208 0.988391 -0.151929   
     length 1.95077   
     axis 0 0 0   XYZ
    dof rx ry rz
    limits (-20.0 45.0)
           (-30.0 30.0)
           (-30.0 30.0)
  end
  begin
     id 12 
     name upperback
     direction -0.00268925 0.999885 -0.0149203   
     length 1.96246   
     axis 0 0 0   XYZ
    dof rx ry rz
    limits (-20.0 45.0)
           (-30.0 30.0)
           (-30.0 30.0)
  end
  begin
     id 13 
     name thorax
     direction -0.000848408 0.998481 0.0550912   
     length 2.00867   
     axis 0 0 0   XYZ
    dof rx ry rz
    limits (-20.0 45.0)
           (-30.0 30.0)
           (-30.0 30.0)
  end
  begin
     id 14 
     name lowerneck
     direction -0.00577709 0.998999 0.0443608   
     length 1.75762   
     axis 0 0 0   XYZ
    dof rx ry rz
    limits (-20.0 45.0)
           (-30.0 30.0)
           (-30.0 30.0)
  end
  begin
     id 15 
     name upperneck
     direction 0.0320945 0.999136 0.0264105   
     length 1.72601   
     axis 0 0 0   XYZ
    dof rx ry rz
    limits (-20.0 45.0)
           (-30.0 30.0)
           (-30.0 30.0)
  end
  begin
     id 16
     name head
     direction 0.0120552 0.999916 0.00480151  
     length 1.79973  
     axis 0 0 0   XYZ
    dof rx ry rz
    limits (-20.0 45.0)
           (-30.0 30.0)
           (-30.0 30.0)
  end
  begin
     id 17 
     name lclavicle
     direction 0.909 0.371533 -0.188897  
     length 3.47956  
     axis 0 0 0   XYZ
    dof ry rz
    limits (-20.0 10.0)
           (0.0 20.0)
  end
  begin
     id 18 
     name lhumerus
     direction 1 -4.48963e-011 -6.48352e-028   
     length 5.52302   
     axis 180 -30 -90   XYZ
    dof rx ry rz
    limits (-60.0 90.0)
           (-90.0 90.0)
           (-90.0 90.0)
  end
  begin
     id 19
     name lradius
     direction 1 -4.48968e-011 -4.78536e-027   
     length 3.58675   
     axis 180 -30 -90   XYZ
    dof rx
    limits (-10.0 170.0)
  end
  begin
     id 20
     name lwrist
     direction 1 -4.48942e-011 -9.9435e-027   
     length 1.79337   
     axis 8.54312e-015 90 90   XYZ
    dof ry
    limits (-180.0 0.0)
 end
  begin
     id 21 
     name lhand
     direction 1 -4.4904e-011 -1.9887e-026   
     length 0.536412   
     axis 1.26896e-014 90 90   XYZ
    dof rx rz
    limits (-90.0 90.0)
           (-45.0 45.0)
  end
  begin
     id 22 
     name lfingers
     direction 1 -4.48893e-011 -3.9774e-026   
     length 0.432469   
     axis 2.53792e-014 90 90   XYZ
    dof rx
    limits (0.0 90.0)
  end
  begin
     id 23
     name lthumb
     direction 0.707107 -6.34934e-011 0.707107   
     length 0.620942   
     axis -90 45 2.85299e-015   XYZ
    dof rx rz
    limits (-45.0 45.0)
           (-45.0 45.0)
  end
  begin
     id 24 
     name rclavicle
     direction -0.89595 0.416672 -0.153813   
     length 3.44099  
     axis 0 0 0   XYZ 
    dof ry rz
    limits (-10.0 20.0)
           (-20.0 0.0)
  end
  begin
     id 25 
     name rhumerus
     direction -1 -4.48952e-011 5.57804e-028  
     length 5.8478   
     axis 180 30 90   XYZ
    dof rx ry rz
    limits (-90.0 60.0)
           (-90.0 90.0)
           (-90.0 90.0)
  end
  begin
     id 26 
     name rradius
     direction -1 -4.48967e-011 -7.93646e-027   
     length 3.62717   
     axis 180 30 90   XYZ
    dof rx
    limits (-10.0 170.0)
  end
  begin
     id 27 
     name rwrist
     direction -1 -4.49008e-011 -9.9435e-027   
     length 1.81359   
     axis 8.54312e-015 -90 -90   XYZ
    dof ry
    limits (-180.0 0.0)
  end
  begin
     id 28
     name rhand
     direction -1 -4.48812e-011 -1.9887e-026   
     length 0.650516   
     axis 1.26896e-014 -90 -90   XYZ
    dof rx rz
    limits (-90.0 90.0)
           (-45.0 45.0)
  end
  begin
     id 29
     name rfingers
     direction -1 -4.49228e-011 -3.9774e-026   
     length 0.524463   
     axis 2.53792e-014 -90 -90   XYZ
    dof rx
    limits (0.0 90.0)
  end
  begin
     id 30
     name rthumb
     direction -0.707107 -6.34912e-011 0.707107   
     length 0.753027   
     axis -90 -45 -2.85299e-015   XYZ
    dof rx rz
    limits (-45.0 45.0)
           (-45.0 45.0)
  end
:hierarchy
  begin
    root lhipjoint rhipjoint lowerback
    lhipjoint lfemur
    lfemur ltibia
    ltibia lfoot
    lfoot ltoes
    rhipjoint rfemur
    rfemur rtibia
    rtibia rfoot
    rfoot rtoes
    lowerback upperback
    upperback thorax
    thorax lowerneck lclavicle rclavicle
    lowerneck upperneck
    upperneck head
    lclavicle lhumerus
    lhumerus lradius
    lradius lwrist
    lwrist lhand lthumb
    lhand lfingers
    rclavicle rhumerus
    rhumerus rradius
    rradius rwrist
    rwrist rhand rthumb
    rhand rfingers
  end

#!OML:ASF F:\VICON\USERDATA\INSTALL\rory3\rory3.ASF
:FULLY-SPECIFIED
:DEGREES
780
root 14.1756 18.123 12.5971 -180.714 5.25939 -179.618
lowerback 8.02038 0.554858 0.111689
upperback 1.3799 0.808695 -1.99104
thorax -3.03803 0.448091 -2.20928
lowerneck -2.53894 -2.81795 -0.0651881
upperneck 19.9245 -3.00034 2.41638
head 6.50017 -0.743623 0.653705
rclavicle -2.33572e-015 3.26007e-014
rhumerus -32.5943 -6.32705 -81.1119
rradius 32.6008
rwrist 13.9599
rhand -20.1673 15.952
rfingers 7.12502
rthumb 6.17829 -13.9379
lclavicle -2.33572e-015 3.26007e-014
lhumerus -29.5029 4.59482 80.073
lradius 11.2716
lwrist 17.107
lhand -41.0303 25.567
lfingers 7.12502
lthumb -13.9608 55.0783
rfemur 0.415621 6.64443 22.2535
rtibia 49.7549
rfoot 25.8101 5.96634
rtoes 15.733
lfemur -15.8609 -4.92036 -20.7495
ltibia 23.2213
lfoot -2.16109 1.3288
ltoes -10.9316
781
root 14.1672 18.0746 12.4492 -180.84 5.61117 -180.267
lowerback 7.9362 0.588937 -0.556829
upperback 1.41136 0.806206 -2.15622
thorax -2.96501 0.458434 -2.00199
lowerneck -2.2663 -2.73661 -0.0568749
upperneck 19.7409 -2.86332 2.27473
head 6.38977 -0.695301 0.61763
rclavicle 5.51627e-015 -3.4191e-014
rhumerus -32.3034 -6.42885 -81.1674
rradius 31.356
rwrist 14.6918
rhand -19.5862 16.0878
rfingers 7.12502
rthumb 6.7393 -13.7849
lclavicle 5.51627e-015 -3.4191e-014
lhumerus -29.2317 4.77845 79.9988
lradius 11.8909
lwrist 16.3096
lhand -38.9198 30.1533
lfingers 7.12502
lthumb -11.9264 59.7936
rfemur -1.11679 6.92641 21.3917
rtibia 52.2166
rfoot 25.2058 5.98826
rtoes 16.039
lfemur -15.1279 -4.6645 -21.58
ltibia 22.7337
lfoot -2.34617 1.42535
ltoes -12.5094
782
root 14.1529 18.1235 12.2831 -181.022 5.50598 -180.659
lowerback 8.0507 0.450069 -0.848924
upperback 1.34293 0.59304 -2.24689
thorax -3.10778 0.355884 -1.91218
lowerneck -2.06922 -2.68324 -0.0333932
upperneck 19.904 -2.72351 2.07469
head 6.40255 -0.62736 0.561878
rclavicle 1.59028e-015 -7.15625e-015
rhumerus -32.392 -6.15283 -81.2284
rradius 30.3026
rwrist 14.7982
rhand -19.3411 17.3098
rfingers 7.12502
rthumb 6.97593 -12.5552
lclavicle 1.59028e-015 -7.15625e-015
lhumerus -29.0234 4.96427 79.9497
lradius 12.2105
lwrist 15.4752
lhand -36.9873 33.8437
lfingers 7.12502
lthumb -10.0624 63.5831
rfemur -2.22754 6.41312 20.6732
rtibia 54.1512
rfoot 23.5201 5.93704
rtoes 15.661
lfemur -13.9712 -4.80151 -22.1798
ltibia 21.8973
lfoot -2.13351 1.41199
ltoes -12.5362
783
root 14.1401 18.1357 12.1208 -181.321 5.20362 -180.973
lowerback 8.28248 0.252341 -1.03122
upperback 1.30747 0.31029 -2.31713
thorax -3.28155 0.218983 -1.85564
lowerneck -1.91373 -2.66459 -0.0230736
upperneck 20.1307 -2.63263 1.91579
head 6.44458 -0.577316 0.518307
rclavicle -2.23633e-015 1.98785e-014
rhumerus -32.7257 -6.00869 -81.1925
rradius 29.4063
rwrist 15.2116
rhand -19.4063 19.0899
rfingers 7.12502
rthumb 6.91296 -10.7772
lclavicle -2.23633e-015 1.98785e-014
lhumerus -28.8761 5.12462 79.9312
lradius 12.8622
lwrist 14.2518
lhand -35.0987 36.8384
lfingers 7.12502
lthumb -8.24005 66.6577
rfemur -3.2662 5.93087 20.1603
rtibia 56.329
rfoot 21.2695 5.22398
rtoes 13.8387
lfemur -12.3791 -4.89177 -22.7282
ltibia 20.5814
lfoot -1.74885 1.17445
ltoes -9.91966
784
root 14.1296 18.1989 11.9596 -181.652 5.18534 -181.479
lowerback 8.46856 0.1674 -1.41562
upperback 1.48016 0.181119 -2.48426
thorax -3.20947 0.169015 -1.79937
lowerneck -2.01242 -2.63157 0.00345054
upperneck 20.1141 -2.60722 1.93597
head 6.45605 -0.566698 0.520407
rclavicle -7.40473e-015 -1.66979e-014
rhumerus -32.6767 -6.16173 -81.2137
rradius 28.6429
rwrist 16.0935
rhand -19.5603 20.3678
rfingers 7.12502
rthumb 6.76425 -9.50416
lclavicle -7.40473e-015 -1.66979e-014
lhumerus -28.2873 5.25305 79.9017
lradius 13.9492
lwrist 12.5599
lhand -31.6767 41.4963
lfingers 7.12502
lthumb -4.93652 71.4188
rfemur -4.53388 5.73889 19.4313
rtibia 58.0626
rfoot 21.4141 2.59779
rtoes 13.8425
lfemur -11.2628 -4.81625 -23.4118
ltibia 19.5976
lfoot -2.47175 1.23742
ltoes -7.16712
